<svg width="100%" height="100%" viewBox="0 0 1656 1656" version="1.1"  style="fill-rule:evenodd;clip-rule:evenodd;stroke-linejoin:round;stroke-miterlimit:2;">
    <g transform="matrix(1,0,0,1,-756.858,-1400.79)">
        <g transform="matrix(4.16667,0,0,4.16667,0,0)">
            <path d="M579,534.867C579,644.593 490.049,733.544 380.323,733.544C270.596,733.544 181.646,644.593 181.646,534.867L181.646,534.866C181.646,425.14 270.596,336.189 380.323,336.189C490.049,336.189 579,425.14 579,534.866L579,534.867Z" style="fill:rgb(0,2,11);fill-rule:nonzero;"/>
        </g>
        <g transform="matrix(4.16667,0,0,4.16667,0,0)">
            <path d="M439.187,519.454L435.877,546.03C435.32,550.475 431.558,553.812 427.1,553.812L384.051,553.812L384.051,664.94C379.507,665.351 374.909,665.557 370.259,665.557C359.863,665.557 349.706,664.515 339.895,662.538L339.895,553.812L306.784,553.812C303.745,553.812 301.264,551.318 301.264,548.272L301.264,515.016C301.264,511.971 303.745,509.476 306.784,509.476L339.895,509.476L339.895,459.594C339.895,428.985 364.607,404.173 395.09,404.173L433.721,404.173C436.759,404.173 439.24,406.668 439.24,409.713L439.24,442.969C439.24,446.014 436.759,448.509 433.721,448.509L406.123,448.509C393.936,448.509 384.051,458.433 384.051,470.68L384.051,509.476L430.41,509.476C435.731,509.476 439.844,514.16 439.187,519.454Z" style="fill:white;fill-rule:nonzero;"/>
        </g>
    </g>
</svg>
