<?xml version="1.0" encoding="UTF-8" standalone="no"?>
<!DOCTYPE svg PUBLIC "-//W3C//DTD SVG 1.1//EN" "http://www.w3.org/Graphics/SVG/1.1/DTD/svg11.dtd">
<svg width="100%" height="100%" viewBox="0 0 1656 1656" version="1.1" xmlns="http://www.w3.org/2000/svg" xmlns:xlink="http://www.w3.org/1999/xlink" xml:space="preserve" xmlns:serif="http://www.serif.com/" style="fill-rule:evenodd;clip-rule:evenodd;stroke-linejoin:round;stroke-miterlimit:2;">
    <g transform="matrix(1,0,0,1,-4756.79,-6110.25)">
        <g transform="matrix(4.16667,0,0,4.16667,0,0)">
            <path d="M1538.98,1665.13C1538.98,1774.86 1450.03,1863.81 1340.31,1863.81C1230.58,1863.81 1141.63,1774.86 1141.63,1665.13C1141.63,1555.41 1230.58,1466.46 1340.31,1466.46C1450.03,1466.46 1538.98,1555.41 1538.98,1665.13Z" style="fill:rgb(0,2,11);fill-rule:nonzero;"/>
        </g>
        <g transform="matrix(4.16667,0,0,4.16667,0,0)">
            <path d="M1343.56,1751.71C1326.2,1751.71 1309.95,1747.02 1295.96,1738.84C1294.64,1738.1 1293.37,1737.31 1292.13,1736.49L1253.99,1746.65L1264.15,1708.51C1254.52,1693.7 1248.93,1676.05 1248.93,1657.08C1248.93,1604.91 1291.39,1562.45 1343.56,1562.45C1395.73,1562.45 1438.2,1604.91 1438.2,1657.08C1438.2,1709.25 1395.73,1751.71 1343.56,1751.71ZM1339.59,1537.83C1278.18,1539.82 1227.47,1589.55 1224.4,1650.91C1223.29,1673.03 1228.17,1693.94 1237.66,1712.09L1224.33,1771.79C1223.76,1774.49 1226.15,1776.88 1228.85,1776.32L1288.55,1762.99L1288.59,1762.99C1306.62,1772.41 1327.31,1777.29 1349.27,1776.27C1410.53,1773.43 1460.42,1723.1 1462.79,1661.82C1465.47,1592.41 1408.9,1535.58 1339.59,1537.83Z" style="fill:white;fill-rule:nonzero;"/>
        </g>
        <g transform="matrix(4.16667,0,0,4.16667,0,0)">
            <path d="M1399.68,1698.74C1398.03,1701.21 1396.3,1703.52 1393.54,1706.29C1387.47,1712.35 1379.06,1715.41 1370.52,1714.54C1355.21,1712.97 1333.47,1704.51 1314.79,1685.87C1296.1,1667.18 1287.64,1645.44 1286.12,1630.14C1285.25,1621.6 1288.3,1613.18 1294.37,1607.12C1297.13,1604.36 1299.44,1602.62 1301.92,1600.93C1306.5,1597.84 1312.72,1599.9 1314.46,1605.1L1320.73,1623.91C1322.46,1629.07 1321.68,1632.32 1319.45,1634.51L1314.45,1639.55C1311.98,1642.02 1311.57,1645.86 1313.46,1648.83C1316.23,1653.16 1321.43,1660.09 1331,1669.66C1340.57,1679.23 1347.5,1684.43 1351.83,1687.19C1354.8,1689.09 1358.64,1688.68 1361.11,1686.2L1366.15,1681.21C1368.33,1678.98 1371.59,1678.2 1376.75,1679.93L1395.56,1686.2C1400.76,1687.93 1402.82,1694.16 1399.68,1698.74Z" style="fill:white;fill-rule:nonzero;"/>
        </g>
    </g>
</svg>
